<svg xmlns="http://www.w3.org/2000/svg" width="35.127" height="35.035" viewBox="0 0 35.127 35.035">
  <path id="aboutmeig" d="M17.493,40.36a8.983,8.983,0,1,0,9,8.983A8.979,8.979,0,0,0,17.493,40.36Zm0,14.822a5.84,5.84,0,1,1,5.854-5.84,5.857,5.857,0,0,1-5.854,5.84Zm11.473-15.19a2.1,2.1,0,1,1-2.1-2.1A2.093,2.093,0,0,1,28.965,39.993Zm5.964,2.126c-.133-2.807-.776-5.293-2.837-7.341s-4.545-2.689-7.359-2.83c-2.9-.164-11.59-.164-14.49,0-2.805.133-5.3.774-7.359,2.822S.189,39.3.048,42.111C-.116,45-.116,53.674.048,56.566c.133,2.807.776,5.293,2.837,7.341s4.545,2.689,7.359,2.83c2.9.164,11.59.164,14.49,0,2.813-.133,5.305-.774,7.359-2.83s2.7-4.534,2.837-7.341C35.093,53.674,35.093,45.012,34.929,42.119ZM31.183,59.67A5.919,5.919,0,0,1,27.845,63c-2.312.915-7.8.7-10.352.7s-8.048.2-10.352-.7A5.919,5.919,0,0,1,3.8,59.67C2.885,57.364,3.1,51.891,3.1,49.343s-.2-8.029.705-10.327a5.92,5.92,0,0,1,3.338-3.33c2.312-.915,7.8-.7,10.352-.7s8.048-.2,10.352.7a5.92,5.92,0,0,1,3.338,3.33c.917,2.306.705,7.779.705,10.327S32.1,57.371,31.183,59.67Z" transform="translate(0.075 -31.825)" fill="#b47e65"/>
</svg>
