<svg xmlns="http://www.w3.org/2000/svg" width="34.555" height="33.703" viewBox="0 0 34.555 33.703">
  <path id="aboutmefb" d="M30.852,32H3.7A3.658,3.658,0,0,0,0,35.611V62.092A3.658,3.658,0,0,0,3.7,65.7H14.289V54.245H9.429V48.851h4.859V44.741c0-4.675,2.854-7.258,7.225-7.258a30.16,30.16,0,0,1,4.282.364v4.589H23.384c-2.376,0-3.118,1.438-3.118,2.914v3.5h5.305l-.848,5.393H20.266V65.7H30.852a3.658,3.658,0,0,0,3.7-3.611V35.611A3.658,3.658,0,0,0,30.852,32Z" transform="translate(0 -32)" fill="#b47e65"/>
</svg>
