<svg xmlns="http://www.w3.org/2000/svg" width="11.392" height="11.39" viewBox="0 0 11.392 11.39">
  <path id="instagram" d="M5.623,34.6a2.92,2.92,0,1,0,2.92,2.92A2.916,2.916,0,0,0,5.623,34.6Zm0,4.819a1.9,1.9,0,1,1,1.9-1.9,1.9,1.9,0,0,1-1.9,1.9ZM9.343,34.48a.681.681,0,1,1-.681-.681A.68.68,0,0,1,9.343,34.48Zm1.934.691a3.371,3.371,0,0,0-.92-2.387,3.393,3.393,0,0,0-2.387-.92c-.94-.053-3.759-.053-4.7,0a3.388,3.388,0,0,0-2.387.917,3.382,3.382,0,0,0-.92,2.387c-.053.94-.053,3.759,0,4.7a3.371,3.371,0,0,0,.92,2.387,3.4,3.4,0,0,0,2.387.92c.94.053,3.759.053,4.7,0a3.371,3.371,0,0,0,2.387-.92,3.393,3.393,0,0,0,.92-2.387C11.331,38.928,11.331,36.112,11.277,35.172Zm-1.215,5.706A1.922,1.922,0,0,1,8.98,41.96a12.553,12.553,0,0,1-3.357.229,12.65,12.65,0,0,1-3.357-.229,1.922,1.922,0,0,1-1.083-1.083A12.553,12.553,0,0,1,.954,37.52a12.651,12.651,0,0,1,.229-3.357A1.922,1.922,0,0,1,2.265,33.08a12.553,12.553,0,0,1,3.357-.229,12.651,12.651,0,0,1,3.357.229,1.922,1.922,0,0,1,1.083,1.083,12.553,12.553,0,0,1,.229,3.357A12.545,12.545,0,0,1,10.063,40.877Z" transform="translate(0.075 -31.825)" fill="#fff"/>
</svg>
